<svg xmlns="http://www.w3.org/2000/svg" xmlns:xlink="http://www.w3.org/1999/xlink" version="1.1" style="enable-background:new 0 0 270 270;" xml:space="preserve" width="130" height="130"><rect id="backgroundrect" width="100%" height="100%" x="0" y="0" fill="none" stroke="none" class="" style=""/>
<style type="text/css">
	.st0{fill:#E01E5A;}
	.st1{fill:#36C5F0;}
	.st2{fill:#2EB67D;}
	.st3{fill:#ECB22E;}
</style>

<g class="currentLayer" style=""><title>Layer 1</title><g id="svg_1" class="">
	<g id="svg_2">
		<path class="st0" d="M29.39999904632569,81.20000238418578 c0,7.1 -5.8,12.9 -12.9,12.9 c-7.1,0 -12.9,-5.8 -12.9,-12.9 c0,-7.1 5.8,-12.9 12.9,-12.9 h12.9 V81.20000238418578 z" id="svg_3"/>
		<path class="st0" d="M35.89999904632569,81.20000238418578 c0,-7.1 5.8,-12.9 12.9,-12.9 s12.9,5.8 12.9,12.9 v32.3 c0,7.1 -5.8,12.9 -12.9,12.9 s-12.9,-5.8 -12.9,-12.9 V81.20000238418578 z" id="svg_4"/>
	</g>
	<g id="svg_5">
		<path class="st1" d="M48.79999904632568,29.400002384185797 c-7.1,0 -12.9,-5.8 -12.9,-12.9 c0,-7.1 5.8,-12.9 12.9,-12.9 s12.9,5.8 12.9,12.9 v12.9 H48.79999904632568 z" id="svg_6"/>
		<path class="st1" d="M48.79999904632568,35.9000023841858 c7.1,0 12.9,5.8 12.9,12.9 s-5.8,12.9 -12.9,12.9 H16.499999046325684 c-7.1,0 -12.9,-5.8 -12.9,-12.9 s5.8,-12.9 12.9,-12.9 H48.79999904632568 z" id="svg_7"/>
	</g>
	<g id="svg_8">
		<path class="st2" d="M100.59999904632568,48.80000238418579 c0,-7.1 5.8,-12.9 12.9,-12.9 c7.1,0 12.9,5.8 12.9,12.9 s-5.8,12.9 -12.9,12.9 h-12.9 V48.80000238418579 z" id="svg_9"/>
		<path class="st2" d="M94.09999904632568,48.80000238418579 c0,7.1 -5.8,12.9 -12.9,12.9 c-7.1,0 -12.9,-5.8 -12.9,-12.9 V16.50000238418579 c0,-7.1 5.8,-12.9 12.9,-12.9 c7.1,0 12.9,5.8 12.9,12.9 V48.80000238418579 z" id="svg_10"/>
	</g>
	<g id="svg_11">
		<path class="st3" d="M81.19999904632567,100.60000238418579 c7.1,0 12.9,5.8 12.9,12.9 c0,7.1 -5.8,12.9 -12.9,12.9 c-7.1,0 -12.9,-5.8 -12.9,-12.9 v-12.9 H81.19999904632567 z" id="svg_12"/>
		<path class="st3" d="M81.19999904632567,94.10000238418579 c-7.1,0 -12.9,-5.8 -12.9,-12.9 c0,-7.1 5.8,-12.9 12.9,-12.9 h32.3 c7.1,0 12.9,5.8 12.9,12.9 c0,7.1 -5.8,12.9 -12.9,12.9 H81.19999904632567 z" id="svg_13"/>
	</g>
</g></g></svg>