<svg fill="#aaa" height="100pt" viewBox="0 0 100 100" width="100pt" xmlns="http://www.w3.org/2000/svg"><path d="m84.121 26.09-17.25-19.438c-.47656-.53516-1.1562-.83984-1.8711-.83984h-47.25c-1.3828 0-2.5 1.1172-2.5 2.5v83.379c0 1.3828 1.1172 2.5 2.5 2.5h64.5c1.3828 0 2.5-1.1172 2.5-2.5v-63.941c0-.60938-.22656-1.2031-.62891-1.6602zm-16.66-11.242 9.3398 10.527h-9.3398zm12.289 74.34h-59.5v-78.375h42.211v17.062c0 1.3828 1.1172 2.5 2.5 2.5h14.789zm-50.547-40.773c0 1.3828 1.1172 2.5 2.5 2.5h36.59c1.3828 0 2.5-1.1172 2.5-2.5s-1.1172-2.5-2.5-2.5h-36.59c-1.3789 0-2.5 1.1211-2.5 2.5zm39.094 11.016h-36.59c-1.3828 0-2.5 1.1172-2.5 2.5s1.1172 2.5 2.5 2.5h36.59c1.3828 0 2.5-1.1172 2.5-2.5s-1.1211-2.5-2.5-2.5zm0 13.508h-36.59c-1.3828 0-2.5 1.1172-2.5 2.5s1.1172 2.5 2.5 2.5h36.59c1.3828 0 2.5-1.1172 2.5-2.5 0-1.3789-1.1211-2.5-2.5-2.5z"/></svg>