<?xml version="1.0" encoding="UTF-8"?>
<svg width="214px" height="210px" viewBox="0 0 214 210" version="1.1" xmlns="http://www.w3.org/2000/svg" xmlns:xlink="http://www.w3.org/1999/xlink">
    <!-- Generator: Sketch 49.1 (51147) - http://www.bohemiancoding.com/sketch -->
    <title>logo</title>
    <desc>Created with Sketch.</desc>
    <defs/>
    <g id="Logo" stroke="none" stroke-width="1" fill="none" fill-rule="evenodd">
        <path d="M182.336828,6.986 C182.336828,6.986 147.898828,26.997 106.931828,6.052 C65.7228283,26.947 31.2778283,6.936 31.2778283,6.936 C-54.8331717,154.964 106.684828,203.368 106.684828,203.368 C106.931828,203.418 268.452828,155.013 182.336828,6.986 Z" id="Shape" stroke="#43BA47" stroke-width="10" fill="#4A90E2" fill-rule="nonzero" stroke-linecap="round" stroke-linejoin="round"/>
        <path d="M178.927716,11.8894596 C178.927716,11.8894596 146.131988,30.9461794 107.118613,11 C67.8747791,30.8985638 35.0723848,11.841844 35.0723848,11.841844 C-46.9321726,152.810717 106.883392,198.906438 106.883392,198.906438 C107.118613,198.954053 260.937035,152.85738 178.927716,11.8894596 Z" id="Shape" stroke="#FFFFFF" stroke-width="7" stroke-linecap="round" stroke-linejoin="round" fill-rule="nonzero"/>
        <path d="M130.385204,121.477125 C130.892339,121.477125 131.399466,121.572211 131.906601,121.762387 C132.413736,121.952563 132.899733,122.280082 133.364607,122.744956 L141.859073,131.683163 C138.140084,136.543205 133.480852,140.209312 127.881239,142.681594 C122.281625,145.153877 115.657275,146.389999 108.007992,146.389999 C100.992626,146.389999 94.7063618,145.196137 89.1490092,142.808378 C83.5916567,140.420618 78.8795995,137.124291 75.0126964,132.919298 C71.1457932,128.714305 68.1769859,123.727554 66.1061853,117.958895 C64.0353848,112.190236 63,105.925102 63,99.1633039 C63,92.2747224 64.1832969,85.9461972 66.5499261,80.1775384 C68.9165553,74.4088797 72.2234475,69.4326937 76.4707017,65.2488313 C80.717956,61.0649689 85.7997934,57.8109026 91.7163665,55.4865346 C97.6329396,53.1621666 104.162203,52 111.304352,52 C114.769773,52 118.034405,52.3063894 121.098344,52.9191773 C124.162284,53.5319652 127.02544,54.3771773 129.687897,55.4548388 C132.350355,56.5325003 134.80147,57.8214487 137.041316,59.3217226 C139.281161,60.8219965 141.26741,62.4807251 143.00012,64.2979583 L135.773485,73.9968635 C135.308611,74.5885208 134.759224,75.1273435 134.125305,75.6133477 C133.491387,76.0993519 132.603914,76.3423504 131.462861,76.3423504 C130.702158,76.3423504 129.983728,76.173308 129.307548,75.8352181 C128.631368,75.4971282 127.912938,75.0850873 127.152236,74.5990831 C126.391534,74.1130789 125.556887,73.5848214 124.64827,73.0142947 C123.739654,72.443768 122.662008,71.9155105 121.415302,71.4295063 C120.168595,70.943502 118.710605,70.5314612 117.041286,70.1933713 C115.371967,69.8552814 113.417414,69.686239 111.177569,69.686239 C107.289535,69.686239 103.739644,70.3729738 100.52779,71.7464639 C97.3159363,73.1199541 94.558432,75.0850721 92.2551946,77.6418769 C89.9519572,80.1986817 88.1558816,83.2942709 86.8669139,86.9287372 C85.5779462,90.5632035 84.933472,94.6413516 84.933472,99.1633039 C84.933472,103.896562 85.5779462,108.101492 86.8669139,111.77822 C88.1558816,115.454947 89.9096966,118.550537 92.1284115,121.06508 C94.3471264,123.579624 96.9355883,125.491916 99.8938748,126.802014 C102.852161,128.112113 106.021707,128.767152 109.402605,128.767152 C111.346622,128.767152 113.121568,128.672066 114.727495,128.48189 C116.333422,128.291714 117.823108,127.964195 119.196598,127.499321 C120.570088,127.034448 121.880167,126.432234 123.126873,125.692662 C124.37358,124.953091 125.630833,124.033923 126.89867,122.935131 C127.405805,122.512518 127.955193,122.163868 128.54685,121.88917 C129.138507,121.614472 129.751286,121.477125 130.385204,121.477125 Z" id="C" fill="#FFFFFF"/>
    </g>
</svg>