<svg fill="#ffffff" width="100pt" height="100pt" version="1.1" viewBox="0 0 100 100" xmlns="http://www.w3.org/2000/svg">
 <g>
  <path d="m47.762 26.129c2.207 0 4-1.7891 4-4 0-2.207-1.793-4-4-4-9.0469 0-17.723 3.5938-24.121 9.9922-6.3984 6.3945-9.9922 15.074-9.9922 24.117 0 9.0469 3.5938 17.723 9.9922 24.121s15.074 9.9922 24.121 9.9922c9.043 0 17.723-3.5938 24.117-9.9922 6.3984-6.3984 9.9922-15.074 9.9922-24.121 0-2.207-1.793-4-4-4-2.2109 0-4 1.793-4 4 0 6.9297-2.75 13.574-7.6484 18.477-4.8945 4.9023-11.539 7.6523-18.469 7.6562-6.9297 0-13.574-2.7539-18.473-7.6523s-7.6523-11.543-7.6523-18.473c0.003906-6.9297 2.7539-13.574 7.6562-18.469 4.9023-4.8984 11.547-7.6484 18.477-7.6484z"/>
  <path d="m62.738 15.68l7.2031 7.1914-25.391 25.391 7.1875 7.1875 25.391-25.391 7.1914 7.2031 2.0391-23.621z"/>
 </g>
</svg>
