<?xml version="1.0" encoding="UTF-8"?>
<svg fill="#427DC4" width="100pt" height="100pt" version="1.1" viewBox="0 0 100 100" xmlns="http://www.w3.org/2000/svg">
 <path d="m24 5c-4.9336 0-9 4.0664-9 9v68c0 1.6562 1.3438 3 3 3h22c4.5664 6.0781 11.84 10 20 10 13.773 0 25-11.227 25-25 0-8.1445-3.9414-15.367-10-19.938v-42.062c0-1.6562-1.3438-3-3-3zm0 6h45v35.688c-2.793-1.082-5.832-1.6875-9-1.6875-13.773 0-25 11.227-25 25 0 3.168 0.60547 6.207 1.6875 9h-15.688v-56.562c0.94531 0.33594 1.9453 0.5625 3 0.5625h38c0.80469 0.011719 1.5781-0.30078 2.1484-0.86328 0.57422-0.5625 0.89453-1.332 0.89453-2.1367s-0.32031-1.5742-0.89453-2.1367c-0.57031-0.5625-1.3438-0.875-2.1484-0.86328h-38c-1.5391 0-2.7344-1.0703-2.9688-2.5-0.007812-0.050781-0.019531-0.10547-0.03125-0.15625v-0.34375c0-1.7148 1.2852-3 3-3zm36 40c6.2422 0 11.727 3.0078 15.188 7.625l-8.0938 4.375c-1.8164-1.832-4.3359-3-7.0938-3s-5.2773 1.168-7.0938 3l-8.0938-4.375c3.4609-4.6172 8.9453-7.625 15.188-7.625zm-18 12.938l8.1562 4.4062c-0.09375 0.54297-0.15625 1.0898-0.15625 1.6562 0 0.55859 0.066406 1.1211 0.15625 1.6562l-8.1875 4.375c-0.625-1.8867-0.96875-3.9297-0.96875-6.0312 0-2.1289 0.35938-4.1562 1-6.0625zm36 0c0.64062 1.9062 1 3.9336 1 6.0625 0 2.1016-0.34375 4.1445-0.96875 6.0312l-8.1875-4.375c0.089844-0.53516 0.15625-1.0977 0.15625-1.6562 0-0.56641-0.0625-1.1133-0.15625-1.6562zm-18 2.0625c2.2461 0 4 1.7539 4 4s-1.7539 4-4 4-4-1.7539-4-4 1.7539-4 4-4zm-7.125 11c1.8203 1.8516 4.3516 3 7.125 3s5.3047-1.1484 7.125-3l8.0938 4.375c-3.457 4.6367-8.9609 7.625-15.219 7.625s-11.762-2.9883-15.219-7.625z"/>
</svg>
