<?xml version="1.0" encoding="UTF-8"?>
<svg width="258px" height="217px" viewBox="0 0 258 217" version="1.1" xmlns="http://www.w3.org/2000/svg" xmlns:xlink="http://www.w3.org/1999/xlink">
    <!-- Generator: Sketch 43.2 (39069) - http://www.bohemiancoding.com/sketch -->
    <title>Slice 1</title>
    <desc>Created with Sketch.</desc>
    <defs>
        <linearGradient x1="4.27580485%" y1="43.7382224%" x2="95.5832431%" y2="43.7382221%" id="linearGradient-1">
            <stop stop-color="#2F689A" offset="0%"/>
            <stop stop-color="#489A6C" offset="100%"/>
        </linearGradient>
    </defs>
    <g id="Page-1" stroke="none" stroke-width="1" fill="none" fill-rule="evenodd">
        <path d="M157.369561,216.232432 C154.627931,216.232432 151.886301,215.054054 150.241323,213.286486 C148.048019,210.92973 146.951367,207.983784 146.951367,204.448649 L146.951367,156.135135 C146.951367,143.172973 138.726477,131.978378 128.308283,131.978378 C117.890089,131.978378 109.665199,142.583784 109.665199,156.135135 L109.665199,204.448649 C109.665199,207.983784 108.568547,210.92973 106.375243,213.286486 C104.181939,215.643243 100.891983,216.821622 98.1503535,216.232432 C38.3828198,209.751351 0,186.772973 0,157.902703 L0,156.724324 C0,73.0594595 55.9292517,2.94594595 123.921675,0 L128.856609,0 C200.138989,0 257.713219,68.9351351 257.713219,153.189189 L257.713219,157.313514 C257.713219,186.183784 219.330399,209.162162 159.562865,215.643243 C157.917887,216.232432 157.917887,216.232432 157.369561,216.232432 L157.369561,216.232432 Z M127.759957,23.5675676 L123.921675,23.5675676 C66.8957716,25.9243243 20.2880619,86.0216216 20.2880619,157.313514 L20.2880619,158.491892 C20.2880619,169.097297 43.3177538,185.594595 87.1838335,192.075676 L87.1838335,156.724324 C87.1838335,130.8 105.278591,109.589189 127.211631,109.589189 C149.692997,109.589189 167.787755,130.8 167.787755,156.724324 L167.787755,192.075676 C211.653835,185.005405 234.683527,168.508108 234.683527,158.491892 L234.683527,154.367568 C235.231853,81.8972973 186.979165,23.5675676 127.759957,23.5675676 L127.759957,23.5675676 Z" id="Shape" fill="url(#linearGradient-1)"/>
    </g>
</svg>