<?xml version="1.0" encoding="UTF-8"?>
<svg width="64px" height="74px" viewBox="0 0 64 74" version="1.1" xmlns="http://www.w3.org/2000/svg" xmlns:xlink="http://www.w3.org/1999/xlink">
    <g id="Maestro---no-dots" stroke="none" stroke-width="1" fill="none" fill-rule="evenodd">
        <path d="M63.1,17.8 L33.4,0.2 C33.4,0.2 33.4,0.2 33.3,0.2 C33.2,0.1 33.1,0.1 33,0.1 L32.9,0.1 C32.8,0.1 32.7,0.1 32.5,0 C32.5,0 32.5,0 32.4,0 L32.4,0 C32.3,0 32.1,0 32,0.1 L31.9,0.1 C31.8,0.1 31.7,0.2 31.6,0.2 L31.5,0.2 L1.4,17.1 C0.8,17.4 0.4,18.1 0.4,18.7 L0,53.2 C0,53.2 0,53.2 0,53.3 L0,53.7 C0,53.8 0,53.8 0.1,53.9 C0.1,54 0.2,54.1 0.2,54.2 C0.2,54.2 0.2,54.3 0.3,54.3 C0.4,54.4 0.4,54.5 0.5,54.6 C0.5,54.6 0.5,54.6 0.5,54.7 L0.5,54.7 C0.6,54.8 0.7,54.9 0.8,55 L0.8,55 L30.6,72.9 C30.9,73.1 31.2,73.2 31.6,73.2 C31.9,73.2 32.2,73.1 32.5,73 L62.6,56.1 C63.2,55.8 63.6,55.1 63.6,54.5 L63.9,19.7 C64,18.7 63.6,18.1 63.1,17.8 Z M32.4,3.9 L58.3,19.3 L32,34.1 L6.1,18.7 L32.4,3.9 Z M33.9,37.4 L60.2,22.6 L60,53 L33.9,67.6 L33.9,37.4 Z M4.2,21.9 L30.1,37.3 L30.1,67.8 L3.8,52 L4.2,21.9 Z" id="Logo" fill="#47B649" fill-rule="nonzero" style="mix-blend-mode: darken;"></path>
    </g>
</svg>