<?xml version="1.0" encoding="UTF-8"?>
<svg viewBox="0 0 368 412" version="1.1" xmlns="http://www.w3.org/2000/svg" xmlns:xlink="http://www.w3.org/1999/xlink">

    <g id="Page-1" stroke="none" stroke-width="1" fill="none" fill-rule="evenodd">
        <g id="node_logo" fill-rule="nonzero" fill="#80BE42">
            <path d="M183.032,412 C177.364,412 171.834,410.617 167.547,407.714 L116.942,378.124 C109.889,373.839 112.655,372.455 115.559,371.073 C125.375,368.308 128.281,366.786 138.096,361.255 L142.382,361.255 L181.788,383.794 C183.17,385.177 184.553,385.177 186.074,383.794 L337.89,296.547 C339.273,295.165 340.658,293.781 340.658,292.262 L340.658,119.566 C340.658,118.184 339.273,116.801 337.89,115.28 L186.074,28.034 C184.692,26.651 183.309,26.651 181.788,28.034 L29.971,115.28 C28.588,116.663 27.205,118.045 27.205,119.566 L27.205,293.921 C27.205,295.303 28.588,296.686 29.971,298.206 L70.759,322.126 C93.296,333.326 107.262,320.744 107.262,306.64 L107.262,133.67 C107.262,130.905 108.645,129.384 111.548,129.384 L131.182,129.384 C133.948,129.384 135.468,130.767 135.468,133.67 L135.468,306.64 C135.468,336.231 118.601,354.482 90.53,354.482 C82.096,354.482 75.046,354.482 55.412,344.665 L16.006,322.127 C6.189,316.459 0.52,305.259 0.52,294.06 L0.52,119.566 C0.52,108.367 6.189,97.029 16.006,91.498 L167.822,4.252 C177.638,-1.417 190.359,-1.417 200.176,4.252 L351.994,91.498 C361.81,97.167 367.478,108.367 367.478,119.566 L367.478,293.921 C367.478,305.119 361.81,316.458 351.994,321.988 L200.176,409.234 C192.849,410.617 188.701,412 183.032,412 Z" id="Shape"></path>
            <path d="M229.49,292.538 C163.398,292.538 149.295,261.566 149.295,236.264 C149.295,233.498 150.678,231.976 153.582,231.976 L173.216,231.976 C175.982,231.976 177.501,233.36 177.501,236.264 C180.268,255.898 188.701,265.852 229.49,265.852 C261.845,265.852 274.428,258.801 274.428,241.932 C274.428,232.116 270.141,225.063 221.057,219.395 C180.268,215.109 153.582,206.674 153.582,172.938 C153.582,141.966 178.885,123.714 222.439,123.714 C270.279,123.714 295.582,140.583 298.347,177.085 C298.347,178.468 298.347,179.851 296.964,179.851 C295.581,181.234 295.581,181.234 294.198,181.234 L274.565,181.234 C273.182,181.234 270.278,179.851 270.278,178.468 C265.993,157.312 254.792,150.4 222.438,150.4 C187.317,150.4 183.031,163.121 183.031,171.555 C183.031,182.754 187.317,185.658 235.018,192.71 C281.477,198.378 303.877,208.195 303.877,240.549 C304.015,272.904 277.332,292.538 229.49,292.538 Z" id="Shape"></path>
        </g>
    </g>
</svg>