<?xml version="1.0" encoding="UTF-8"?>
<svg width="72px" height="60px" viewBox="0 0 72 60" version="1.1" xmlns="http://www.w3.org/2000/svg" xmlns:xlink="http://www.w3.org/1999/xlink">
    <title>np_positioning_192743_000000</title>
    <g id="Page-1" stroke="none" stroke-width="1" fill="none" fill-rule="evenodd">
        <g id="np_positioning_192743_000000" fill="#047857" fill-rule="nonzero">
            <path d="M56.102,28.199 L49.5004,15 L43.5004,27 L30.0004,0 L0.0004,60 L72.0004,60 L56.102,28.199 Z M49.5004,21.7068 L54.4223,31.5545 L50.102,40.199 L45.1801,30.3513 L49.5004,21.7068 Z M4.8554,56.9998 L30.0004,6.7068 L41.8244,30.3518 L28.5004,56.9998 L4.8554,56.9998 Z M31.8554,56.9998 L43.5004,33.7068 L48.4223,43.5545 L41.6996,56.9995 L31.8554,56.9998 Z M45.0544,56.9998 L50.1013,46.9058 L55.1443,56.9998 L45.0544,56.9998 Z M58.4994,56.9998 L51.7767,43.5548 L56.1009,34.9103 L67.1439,57.0003 L58.4994,56.9998 Z" id="Shape"></path>
        </g>
    </g>
</svg>