<?xml version="1.0" encoding="UTF-8"?>
<svg fill="#427DC4" width="100pt" height="100pt" version="1.1" viewBox="0 0 100 100" xmlns="http://www.w3.org/2000/svg">
 <path d="m47 28h6v58h-6zm42.301-7.3984l-6-6c-0.5-0.5-1.1992-0.69922-1.8008-0.5l-31.5 6.8984-31.602-7c-0.69922-0.10156-1.3984 0.10156-1.8008 0.5l-6 6c-0.39844 0.39844-0.69922 0.67578-0.69922 1.3984v55c0 0.89844 0.69922 1.8008 1.6016 2l33.5 6.9023v-58l-29.801-6.1016 3.3984-3.3984 31 6.6992h0.80078l30.898-6.8008 3.3984 3.3984-29.695 6.2031v58.098l33.398-6.8984c0.89844-0.19922 1.6016-1 1.6016-2v-55c0-0.44531 0.09375-0.60938-0.69922-1.3984z"/>
</svg>
