<?xml version="1.0" encoding="UTF-8"?>
<svg  viewBox="0 0 437 326" version="1.1" xmlns="http://www.w3.org/2000/svg" xmlns:xlink="http://www.w3.org/1999/xlink">
    <g id="Page-1" stroke="none" stroke-width="1" fill="none" fill-rule="evenodd">
        <g id="ruby_logo" fill-rule="nonzero">
            <path d="M398.36,70.18 L373.71,26.73 L281.76,26.88 L303.48,70.99 L398.36,70.18 Z M256.36,71.4 L261.21,44 L253.38,28.1 C253.19,27.71 253.02,27.32 252.87,26.92 L176.72,27.05 C176.543757,27.6345565 176.326553,28.2059709 176.07,28.76 L168.52,44.76 L173.85,72.06 L256.36,71.4 Z M241.39,266.64 L399.23,96.17 L307.7,96.96 L241.39,266.64 L241.39,266.64 Z M148.13,27.11 L68.5,27.24 L40.52,73.25 L126.74,72.51 L148.13,27.11 L148.13,27.11 Z M205.71,235.39 L215.82,260.64 L228.6,227.93 L251.74,97.44 L178.92,98.06 L205.71,235.39 Z M37.83,99.27 L189.38,264.56 L122.92,98.54 L37.83,99.27 L37.83,99.27 Z" id="Shape" fill="#FF1919"></path>
            <path d="M215.82,260.64 L205.71,235.39 L217.01,293.32 L228.6,227.93 L215.82,260.64 Z M178.92,98.06 L251.74,97.44 L256.36,71.4 L173.86,72.11 L178.92,98.06 L178.92,98.06 Z" id="Shape" fill="#D60000"></path>
            <path d="M155.6,72.26 L168.54,44.8 L173.87,72.1 L155.6,72.26 Z M150.83,98.26 L205.71,235.34 L178.92,98.06 L150.83,98.26 Z M274.62,71.2 L261.21,44 L256.35,71.39 L274.62,71.2 Z M279.69,97.2 L251.69,97.44 L228.6,227.93 L279.69,97.2 Z" id="Shape" fill="#FF4747"></path>
            <path d="M435.14,82.32 L392.58,7.32 C390.265521,3.24471459 385.936649,0.730682716 381.25,0.74 L61.16,1.28 C56.6284188,1.28493806 52.4264209,3.64927232 50.07,7.52 L2.63,85.52 C-0.343991072,90.4495371 0.278535083,96.748037 4.16,101 L206.59,321.8 C209.014182,324.436481 212.418693,325.956029 216,326 L216.11,326 C219.742498,326.008089 223.212699,324.495995 225.68,321.83 L433.37,97.56 C437.21434,93.4068073 437.93013,87.2437316 435.14,82.32 L435.14,82.32 Z M373.71,26.73 L398.36,70.18 L303.48,70.99 L281.77,26.88 L373.71,26.73 Z M68.5,27.24 L148.13,27.11 L126.74,72.51 L40.52,73.25 L68.5,27.24 Z M37.82,99.24 L122.91,98.51 L189.37,264.51 L37.82,99.24 Z M217,293.32 L205.7,235.39 L150.83,98.3 L178.92,98.06 L173.86,72.06 L155.6,72.22 L168.54,44.76 L176.09,28.76 C176.346553,28.2059709 176.563757,27.6345565 176.74,27.05 L252.89,26.92 C253.04,27.32 253.21,27.71 253.4,28.1 L261.23,44 L274.64,71.23 L256.38,71.39 L251.76,97.39 L279.76,97.15 L228.6,227.93 L217,293.32 Z M241.38,266.65 L307.7,97 L399.23,96.22 L241.38,266.65 Z" id="Shape" fill="#D60000"></path>
        </g>
    </g>
</svg>