<svg viewBox="0 0 65 65" version="1.1" xmlns="http://www.w3.org/2000/svg" xmlns:xlink="http://www.w3.org/1999/xlink">
    <defs>
        <path d="M12.1693466,40.878844 C11.4384671,37.6466369 13.413559,35.7961521 16.6008856,36.7516807 L42.4464433,44.4999199 C45.6247942,45.4527576 48.7438181,48.8651518 49.4076631,52.0958498 L54.797542,78.3264754 C55.4637667,81.5687539 53.429272,83.3966667 50.2830198,82.418451 L25.111374,74.5922197 C21.9518476,73.6098769 18.7964915,70.186415 18.0671709,66.961102 L12.1693466,40.878844 Z" id="path-1"></path>
        <path d="M12.1765136,27.8880139 C11.4456341,24.6558068 13.420726,22.805322 16.6080526,23.7608506 L42.4536103,31.5090898 C45.6319612,32.4619275 48.7509851,35.8743217 49.4148301,39.1050197 L54.804709,65.3356453 C55.4709336,68.5779238 53.436439,70.4058366 50.2901868,69.4276209 L25.1185409,61.6013896 C21.9590145,60.6190468 18.8036584,57.1955849 18.0743378,53.9702719 L12.1765136,27.8880139 Z" id="path-2"></path>
        <path d="M12.1693466,13.878844 C11.4384671,10.6466369 13.413559,8.79615211 16.6008856,9.75168068 L42.4464433,17.4999199 C45.6247942,18.4527576 48.7438181,21.8651518 49.4076631,25.0958498 L54.797542,51.3264754 C55.4637667,54.5687539 53.429272,56.3966667 50.2830198,55.418451 L25.111374,47.5922197 C21.9518476,46.6098769 18.7964915,43.186415 18.0671709,39.961102 L12.1693466,13.878844 Z" id="path-3"></path>
    </defs>
    <g id="Skycap" stroke="none" stroke-width="1" fill="none" fill-rule="evenodd">
        <g id="Logo" transform="translate(-1.000000, -13.000000)">
            <g id="bottom" transform="translate(33.447561, 59.600000) rotate(313.000000) translate(-33.447561, -59.600000) ">
                <use fill="#FFFFFF" fill-rule="evenodd" xlink:href="#path-1"></use>
                <path class="layer" stroke="#449FD8" stroke-width="4" d="M14.1200955,40.4377329 C13.726167,38.6956422 14.3084308,38.1523663 16.026559,38.6674439 L41.8721167,46.4156831 C44.3420011,47.1561298 46.9320703,49.9846647 47.4485937,52.4984001 L52.8384726,78.7290258 C53.1971006,80.4743411 52.5750469,81.0366374 50.8768107,80.508631 L25.7051648,72.6823997 C23.2306182,71.9130271 20.5903344,69.0514105 20.0179197,66.5199909 L14.1200955,40.4377329 Z"></path>
            </g>
            <g id="middle" transform="translate(33.439163, 46.616131) rotate(313.000000) translate(-33.439163, -46.616131) ">
                <use fill="#FFFFFF" fill-rule="evenodd" xlink:href="#path-2"></use>
                <path class="layer" stroke="#449FD8" stroke-width="4" d="M14.1272624,27.4469028 C13.733334,25.7048121 14.3155978,25.1615362 16.0337259,25.6766138 L41.8792837,33.424853 C44.3491681,34.1652997 46.9392373,36.9938346 47.4557606,39.50757 L52.8456395,65.7381957 C53.2042676,67.483511 52.5822139,68.0458073 50.8839776,67.5178009 L25.7123318,59.6915696 C23.2377852,58.922197 20.5975013,56.0605804 20.0250867,53.5291608 L14.1272624,27.4469028 Z"></path>
            </g>
            <g id="top" transform="translate(33.447561, 32.600000) rotate(313.000000) translate(-33.447561, -32.600000) ">
                <use fill="#FFFFFF" fill-rule="evenodd" xlink:href="#path-3"></use>
                <path class="layer" stroke="#449FD8" stroke-width="4" d="M14.1200955,13.4377329 C13.726167,11.6956422 14.3084308,11.1523663 16.026559,11.6674439 L41.8721167,19.4156831 C44.3420011,20.1561298 46.9320703,22.9846647 47.4485937,25.4984001 L52.8384726,51.7290258 C53.1971006,53.4743411 52.5750469,54.0366374 50.8768107,53.508631 L25.7051648,45.6823997 C23.2306182,44.9130271 20.5903344,42.0514105 20.0179197,39.5199909 L14.1200955,13.4377329 Z"></path>
            </g>
        </g>
    </g>
</svg>