<?xml version="1.0" encoding="UTF-8"?>
<svg width="247px" height="328px" viewBox="0 0 247 328" version="1.1" xmlns="http://www.w3.org/2000/svg" xmlns:xlink="http://www.w3.org/1999/xlink">
    <!-- Generator: Sketch 43.2 (39069) - http://www.bohemiancoding.com/sketch -->
    <title>Slice 1</title>
    <desc>Created with Sketch.</desc>
    <defs>
        <linearGradient x1="50%" y1="0%" x2="50%" y2="100%" id="linearGradient-1">
            <stop stop-color="#004071" offset="0%"/>
            <stop stop-color="#397897" offset="100%"/>
        </linearGradient>
        <linearGradient x1="50%" y1="0%" x2="50%" y2="100%" id="linearGradient-2">
            <stop stop-color="#064675" offset="0%"/>
            <stop stop-color="#397897" offset="100%"/>
        </linearGradient>
    </defs>
    <g id="Page-1" stroke="none" stroke-width="1" fill="none" fill-rule="evenodd">
        <g id="rocket_5" fill-rule="nonzero">
            <path d="M123.720119,187.068624 C113.327842,187.068624 102.935566,182.454899 95.8250608,174.380881 C81.6040508,158.232844 82.6979746,132.857357 98.0129085,117.862752 C105.123413,110.942165 114.421766,107.481871 123.720119,107.481871 C134.112395,107.481871 144.504672,112.095596 151.615177,120.169614 C158.725682,128.243633 162.007453,138.047798 161.460491,149.005394 C160.91353,159.962991 156.537834,169.767156 149.427329,176.687743 C142.316824,183.031615 133.018472,187.068624 123.720119,187.068624 Z M123.720119,117.862752 C117.156576,117.862752 110.593033,120.74633 105.123413,125.360055 C94.184175,136.317651 93.6372131,154.195835 103.482528,165.730147 C108.405185,171.497303 116.062652,174.957596 123.173157,174.957596 C129.7367,174.957596 136.300243,172.074018 141.769862,167.460294 C147.239482,162.269853 149.974291,155.349266 150.521253,147.851963 C151.068215,140.35466 148.333405,132.857357 143.410748,127.090201 C138.488091,121.323045 130.830624,117.862752 123.720119,117.862752 Z" id="Shape" fill="url(#linearGradient-1)"/>
            <path d="M123.720119,327.210516 C100.747718,327.210516 81.0570888,313.946057 76.1344315,296.067873 L0.6536862,311.639194 L0.6536862,304.718607 C0.6536862,265.501946 11.5929247,237.242882 34.5653254,213.597542 C26.3608966,101.714715 73.3996219,31.3554114 120.985309,1.94291567 L123.720119,0.212768863 L126.454928,1.94291567 C173.493654,30.7786958 220.532379,101.714715 212.874912,213.597542 C236.394275,237.242882 246.786551,265.501946 246.786551,305.295323 L246.786551,312.21591 L170.758844,296.644589 C165.836187,313.946057 146.69252,327.210516 123.720119,327.210516 Z M123.720119,315.676203 C155.44391,315.676203 164.742263,283.38013 164.742263,283.38013 L235.847313,298.374735 C234.753389,264.92523 224.908075,241.279891 204.670483,221.094845 C204.123521,220.518129 203.029598,219.364698 202.482636,218.787982 L201.935674,218.787982 C213.421874,116.709321 166.383149,37.699283 123.720119,13.4772277 C79.963165,42.3130079 36.7531731,109.788733 46.0515258,216.48112 L46.0515258,217.634551 C23.626087,238.396313 13.2338104,263.195084 11.5929247,297.221304 L82.6979746,282.226699 C82.6979746,282.803414 90.9024035,315.099488 123.720119,315.676203 Z" id="Shape" fill="url(#linearGradient-2)"/>
        </g>
    </g>
</svg>