<?xml version="1.0" encoding="UTF-8"?>
<svg fill="#49B550" width="100pt" height="100pt" version="1.1" viewBox="0 0 100 100" xmlns="http://www.w3.org/2000/svg">
 <path d="m50 0c-27.613 0-50 22.387-50 50s22.387 50 50 50 50-22.387 50-50-22.387-50-50-50zm24.656 11.199c5.6836 3.625 10.52 8.4609 14.145 14.145l-10.246 10.242c-3.0859-6.0859-8.0547-11.059-14.141-14.141zm-49.316 0l10.246 10.246c-6.0859 3.0859-11.059 8.0547-14.145 14.145l-10.246-10.25c3.625-5.6836 8.4609-10.516 14.145-14.141zm0 77.602c-5.6836-3.625-10.52-8.4609-14.145-14.145l10.246-10.246c3.0859 6.0859 8.0586 11.059 14.145 14.145zm24.66-10.801c-15.465 0-28-12.535-28-28s12.535-28 28-28 28 12.535 28 28-12.535 28-28 28zm24.656 10.801l-10.242-10.242c6.0859-3.0859 11.059-8.0586 14.145-14.145l10.246 10.246c-3.6289 5.6836-8.4648 10.52-14.148 14.141z"/>
</svg>
